<?xml version="1.0" encoding="UTF-8"?>
<svg version="1.1" xmlns="http://www.w3.org/2000/svg" width="288" height="288">
<path d="M0 0 C1.55387672 -0.01073296 1.55387672 -0.01073296 3.1391449 -0.02168274 C4.27528229 -0.02437164 5.41141968 -0.02706055 6.58198547 -0.02983093 C7.77901596 -0.03640213 8.97604645 -0.04297333 10.20935059 -0.04974365 C14.18031679 -0.06949307 18.15126977 -0.08114587 22.12226868 -0.09111023 C23.4912601 -0.0951589 24.86025131 -0.09927586 26.22924232 -0.10346031 C32.66317329 -0.12250954 39.09709283 -0.13673969 45.53104657 -0.14507228 C52.9471878 -0.15483642 60.36302991 -0.18113518 67.77906579 -0.22157317 C73.51763521 -0.25178545 79.25611915 -0.26654608 84.99476653 -0.26985329 C88.41901639 -0.27219848 91.8429466 -0.28108842 95.26711082 -0.30631447 C99.09236313 -0.33065946 102.91683567 -0.3297486 106.74214172 -0.32279968 C107.86815796 -0.33560974 108.99417419 -0.3484198 110.15431213 -0.36161804 C118.97113974 -0.3033119 125.5037507 1.84055556 131.98554993 8.14717102 C136.56866248 14.5479486 138.13457941 19.3391662 138.13272095 27.23669434 C138.13639764 28.07074132 138.14007432 28.9047883 138.14386243 29.76410943 C138.1549077 32.56913028 138.15874455 35.37411409 138.16255188 38.17915344 C138.16881591 40.18629576 138.17546266 42.19343691 138.1824646 44.20057678 C138.19988024 49.66150189 138.210428 55.12241824 138.21867013 60.58336425 C138.22381931 63.9947797 138.2298951 67.40619244 138.23618126 70.81760597 C138.2552353 81.48992222 138.26946574 92.16223154 138.27779323 102.83456153 C138.28756607 115.156053 138.31388606 127.47736484 138.35429412 139.79879302 C138.38445027 149.32076966 138.39926165 158.84269479 138.40257424 168.36471826 C138.40492536 174.05251391 138.41389399 179.74011772 138.43903542 185.42786217 C138.46231211 190.78029962 138.46655085 196.13241885 138.45627403 201.4848938 C138.45577846 203.44725414 138.46210513 205.40963012 138.47583008 207.37194252 C138.49354909 210.0559184 138.48644292 212.73875226 138.47329712 215.42272949 C138.48426637 216.1950248 138.49523561 216.96732011 138.50653726 217.76301831 C138.41752972 225.31619612 135.24826229 231.73827221 129.98554993 237.14717102 C124.33944415 241.26509527 119.9235975 243.26067557 112.8888092 243.29434204 C111.85993088 243.30149734 110.83105255 243.30865265 109.77099609 243.31602478 C108.64780472 243.31871368 107.52461334 243.32140259 106.36738586 243.32417297 C105.17996292 243.33074417 103.99253998 243.33731537 102.76913452 243.34408569 C98.83607117 243.36381087 94.90302118 243.37548338 90.96992493 243.38545227 C89.61300385 243.38950179 88.25608297 243.39361877 86.89916229 243.39780235 C80.52289987 243.41684284 74.14664894 243.43107612 67.77036357 243.43941432 C60.42328185 243.44918212 53.07650176 243.47549414 45.72952628 243.51591522 C40.04189167 243.54612747 34.35434329 243.56088802 28.66663003 243.56419533 C25.27369292 243.56654004 21.88107848 243.57542411 18.48822784 243.60065651 C14.69900498 243.62500229 10.91056924 243.62409066 7.12129211 243.61714172 C6.00619766 243.62995178 4.89110321 243.64276184 3.74221802 243.65596008 C-5.03813228 243.59734479 -11.56182551 241.42540033 -18.01445007 235.14717102 C-22.59756262 228.74639344 -24.16347955 223.95517584 -24.16162109 216.05764771 C-24.16529778 215.22360072 -24.16897447 214.38955374 -24.17276257 213.53023261 C-24.18380785 210.72521176 -24.18764469 207.92022795 -24.19145203 205.1151886 C-24.19771606 203.10804628 -24.2043628 201.10090513 -24.21136475 199.09376526 C-24.22878039 193.63284015 -24.23932815 188.1719238 -24.24757028 182.71097779 C-24.25271946 179.29956234 -24.25879524 175.8881496 -24.26508141 172.47673607 C-24.28413545 161.80441982 -24.29836588 151.1321105 -24.30669338 140.45978051 C-24.31646622 128.13828904 -24.34278621 115.8169772 -24.38319427 103.49554902 C-24.41335042 93.97357239 -24.4281618 84.45164725 -24.43147439 74.92962378 C-24.43382551 69.24182813 -24.44279414 63.55422432 -24.46793556 57.86647987 C-24.49121226 52.51404242 -24.495451 47.16192319 -24.48517418 41.80944824 C-24.48467861 39.8470879 -24.49100528 37.88471192 -24.50473022 35.92239952 C-24.52244924 33.23842365 -24.51534306 30.55558978 -24.50219727 27.87161255 C-24.51316651 27.09931724 -24.52413576 26.32702193 -24.53543741 25.53132373 C-24.44642987 17.97814592 -21.27716243 11.55606983 -16.01445007 6.14717102 C-10.79260876 2.40820553 -6.53151622 0.03097023 0 0 Z M-3.76445007 21.52217102 C-6.7154452 25.35846468 -6.15811345 30.14122167 -6.14816284 34.76971436 C-6.1504284 35.54139562 -6.15269395 36.31307689 -6.15502816 37.10814244 C-6.1613623 39.69595556 -6.16053918 42.28371623 -6.15971375 44.87153625 C-6.16270557 46.72605965 -6.16610816 48.58058242 -6.16989136 50.43510437 C-6.17873244 55.47430204 -6.1810695 60.51348273 -6.18170714 65.55268741 C-6.18265623 69.75759405 -6.18633447 73.96249673 -6.18987924 78.16740185 C-6.19802396 88.08619739 -6.20046343 98.00498385 -6.19975281 107.92378235 C-6.19915177 118.16095531 -6.20970869 128.39807562 -6.22549647 138.63523525 C-6.23856369 147.42088648 -6.24393706 156.20652048 -6.2432974 164.99218136 C-6.2430422 170.24105718 -6.2459055 175.48988621 -6.25647545 180.73875237 C-6.26614282 185.67417551 -6.26624496 190.60950698 -6.25895882 195.54493332 C-6.25791133 197.35696483 -6.26028556 199.16900202 -6.26631927 200.98102379 C-6.27401892 203.45333895 -6.26940792 205.9253359 -6.26168823 208.39764404 C-6.2668318 209.11574058 -6.27197536 209.83383713 -6.27727479 210.57369417 C-6.24414989 215.36978037 -5.63890575 219.07968197 -2.63945007 222.89717102 C0.41265956 225.24494766 3.79145677 225.27290885 7.53302002 225.28088379 C8.44002151 225.28514877 9.34702301 225.28941376 10.2815094 225.29380798 C11.76297455 225.2931282 11.76297455 225.2931282 13.27436829 225.29243469 C14.32030655 225.2957933 15.36624481 225.29915192 16.44387817 225.3026123 C19.90439539 225.31211809 23.36486421 225.31406516 26.82539368 225.31513977 C29.22908549 225.31835232 31.63277711 225.32171639 34.03646851 225.32522583 C39.0760595 225.33121596 44.11563335 225.33306582 49.15522766 225.33247375 C55.61612618 225.33237207 62.07691495 225.346031 68.53778744 225.36324596 C73.5022838 225.37435774 78.46675354 225.37639322 83.43126106 225.37586403 C85.81351157 225.37704513 88.19576274 225.38147415 90.57800102 225.3891964 C93.90785824 225.39898066 97.23747607 225.39612443 100.56733704 225.39009094 C101.55295624 225.39571045 102.53857544 225.40132996 103.55406189 225.40711975 C108.98131901 225.38209883 113.30713585 225.25163922 117.73554993 221.77217102 C120.68654505 217.93587736 120.1292133 213.15312037 120.1192627 208.52462769 C120.12266103 207.36710579 120.12266103 207.36710579 120.12612802 206.18619961 C120.13246215 203.59838648 120.13163903 201.01062581 120.1308136 198.42280579 C120.13380543 196.56828239 120.13720801 194.71375962 120.14099121 192.85923767 C120.1498323 187.82004 120.15216935 182.78085931 120.152807 177.74165463 C120.15375608 173.53674799 120.15743432 169.33184531 120.16097909 165.12694019 C120.16912382 155.20814465 120.17156328 145.28935819 120.17085266 135.37055969 C120.17025163 125.13338673 120.18080855 114.89626642 120.19659632 104.65910679 C120.20966354 95.87345556 120.21503691 87.08782156 120.21439725 78.30216068 C120.21414205 73.05328486 120.21700535 67.80445583 120.2275753 62.55558968 C120.23724268 57.62016653 120.23734481 52.68483506 120.23005867 47.74940872 C120.22901118 45.93737721 120.23138541 44.12534002 120.23741913 42.31331825 C120.24511877 39.84100309 120.24050777 37.36900614 120.23278809 34.896698 C120.23793165 34.17860146 120.24307521 33.46050491 120.24837464 32.72064787 C120.21524974 27.92456168 119.61000561 24.21466007 116.61054993 20.39717102 C113.5584403 18.04939438 110.17964309 18.02143319 106.43807983 18.01345825 C105.53107834 18.00919327 104.62407684 18.00492828 103.68959045 18.00053406 C102.20812531 18.00121384 102.20812531 18.00121384 100.69673157 18.00190735 C99.6507933 17.99854874 98.60485504 17.99519012 97.52722168 17.99172974 C94.06670446 17.98222395 90.60623564 17.98027688 87.14570618 17.97920227 C84.74201436 17.97598972 82.33832275 17.97262565 79.93463135 17.96911621 C74.89504035 17.96312608 69.8554665 17.96127622 64.81587219 17.96186829 C58.35497367 17.96196997 51.89418491 17.94831104 45.43331242 17.93109608 C40.46881606 17.9199843 35.50434631 17.91794882 30.53983879 17.91847801 C28.15758829 17.91729691 25.77533711 17.91286789 23.39309883 17.90514565 C20.06324162 17.89536139 16.73362379 17.89821761 13.40376282 17.9042511 C12.41814362 17.89863159 11.43252441 17.89301208 10.41703796 17.88722229 C4.98978085 17.91224321 0.663964 18.04270282 -3.76445007 21.52217102 Z " fill="#89CDD2" transform="translate(87.01445007324219,35.85282897949219)"/>
<path d="M0 0 C1.15947647 -0.0131424 1.15947647 -0.0131424 2.34237671 -0.02655029 C4.88898408 -0.048497 7.43384478 -0.03400976 9.98046875 -0.01708984 C11.75496757 -0.02045937 13.52946414 -0.02531313 15.30395508 -0.03158569 C19.01959243 -0.03895057 22.73462802 -0.02826427 26.45019531 -0.00488281 C31.20870359 0.02360516 35.96580186 0.00719906 40.72425842 -0.02274513 C44.3875182 -0.04082877 48.05044468 -0.03505528 51.7137146 -0.02210617 C53.46796842 -0.01877508 55.22225268 -0.02284881 56.97647095 -0.03450394 C59.43043954 -0.04723085 61.8821377 -0.02781325 64.3359375 0 C65.05816498 -0.01012115 65.78039246 -0.02024231 66.52450562 -0.03067017 C70.43695813 0.0513212 72.04579381 0.54703077 75.1159668 3.0585022 C77.10674526 5.5697431 77.85602174 6.51954435 77.79296875 9.64697266 C77.81230469 10.60603516 77.81230469 10.60603516 77.83203125 11.58447266 C76.75587264 14.92689469 74.86113571 16.44390075 72.16796875 18.64697266 C69.35371442 19.14265976 67.14353445 19.33329043 64.3359375 19.29394531 C63.56295319 19.30270691 62.78996887 19.31146851 61.99356079 19.32049561 C59.44695342 19.34244231 56.90209272 19.32795508 54.35546875 19.31103516 C52.58096993 19.31440468 50.80647336 19.31925845 49.03198242 19.32553101 C45.31634507 19.33289588 41.60130948 19.32220958 37.88574219 19.29882812 C33.12723391 19.27034016 28.37013564 19.28674625 23.61167908 19.31669044 C19.9484193 19.33477408 16.28549282 19.3290006 12.6222229 19.31605148 C10.86796908 19.3127204 9.11368482 19.31679412 7.35946655 19.32844925 C4.90549796 19.34117616 2.4537998 19.32175856 0 19.29394531 C-1.08334122 19.30912704 -1.08334122 19.30912704 -2.18856812 19.32461548 C-6.10102063 19.24262411 -7.70985631 18.74691454 -10.7800293 16.23544312 C-12.77080776 13.72420221 -13.52008424 12.77440097 -13.45703125 9.64697266 C-13.46992187 9.00759766 -13.4828125 8.36822266 -13.49609375 7.70947266 C-11.36320374 1.08496721 -6.22861581 -0.08728661 0 0 Z " fill="#88CDD1" transform="translate(111.83203125,-0.64697265625)"/>
</svg>
