<?xml version="1.0" encoding="UTF-8"?>
<svg version="1.1" xmlns="http://www.w3.org/2000/svg" width="288" height="288">
<path d="M0 0 C0.85788244 -0.00694553 1.71576489 -0.01389106 2.59964377 -0.02104706 C5.46159961 -0.0392789 8.32272293 -0.02906343 11.18470764 -0.01878357 C13.24170551 -0.02584397 15.29869818 -0.03458949 17.35568237 -0.04489136 C22.93422473 -0.0673814 28.51248331 -0.06444643 34.09105372 -0.05556989 C38.75066093 -0.05045759 43.41021492 -0.05775454 48.06981665 -0.06504196 C59.06323914 -0.08203976 70.05652281 -0.07847625 81.04994202 -0.06175232 C92.38639029 -0.04482942 103.72245354 -0.06066835 115.05885977 -0.0929752 C124.79750317 -0.11967593 134.53602676 -0.12694581 144.27470309 -0.11846012 C150.0887596 -0.11353257 155.90258445 -0.11573755 161.71661186 -0.13624763 C167.18411179 -0.15461221 172.65105813 -0.14863606 178.11852837 -0.12404823 C180.12280502 -0.11904294 182.1271239 -0.12252275 184.13136673 -0.13519669 C186.87231005 -0.15115543 189.61143663 -0.13615019 192.35229492 -0.11352539 C193.14131649 -0.12536112 193.93033807 -0.13719685 194.74326938 -0.14939123 C200.65081203 -0.05064101 204.64730759 1.81460359 209.23963928 5.5146637 C214.73272339 11.91397761 213.80529779 19.45499333 213.75721741 27.51856995 C213.76264277 29.04517788 213.76976775 30.57178057 213.77845764 32.09837341 C213.79664489 36.23065989 213.78964266 40.36254551 213.7769413 44.49483871 C213.7667897 48.82640892 213.77621297 53.15794561 213.78248596 57.48951721 C213.78975609 64.76261027 213.78019137 72.03554067 213.76112366 79.30860901 C213.73935608 87.70831494 213.7464079 96.10763246 213.76842928 104.50732899 C213.78660141 111.72878492 213.78913276 118.95012416 213.7786746 126.17159557 C213.77244961 130.48044384 213.77157656 134.78910974 213.78482056 139.09794617 C213.79640492 143.14959451 213.78830659 147.20074378 213.76524353 151.25233841 C213.75997018 152.73617348 213.76144668 154.2200508 213.77029419 155.70386887 C213.84844306 170.14551559 213.84844306 170.14551559 209.23963928 175.5146637 C203.76725868 180.92411296 197.98155418 181.07869407 190.56329346 181.06692505 C189.15055121 181.03954132 187.73781638 181.0117728 186.3250885 180.98365784 C184.81956509 180.97244982 183.31402227 180.96363394 181.80847168 180.95701599 C178.57747565 180.93876251 175.34709048 180.90575342 172.11634445 180.86172676 C166.99549265 180.79412706 161.87507395 180.77257592 156.75382996 180.75939941 C142.19515349 180.71554681 127.63731222 180.62067141 113.07948303 180.45680237 C105.03006591 180.36659256 96.9815579 180.32000014 88.93162358 180.31992048 C84.68014578 180.31782827 80.43149439 180.29322584 76.18070602 180.2135334 C55.32784734 178.8824884 55.32784734 178.8824884 37.31898499 187.35939026 C35.47739596 189.33615485 33.88531948 191.36027079 32.23963928 193.5146637 C30.85146502 194.78409996 29.43858434 196.02857343 27.97792053 197.21388245 C27.40203186 197.71629456 26.82614319 198.21870667 26.23280334 198.73634338 C5.40276908 216.90361906 5.40276908 216.90361906 -5.74473572 216.7959137 C-11.28750778 216.27897122 -14.34662216 214.04001319 -18.13536072 209.9521637 C-20.98181335 205.68248475 -20.91089888 201.86864011 -20.91426086 196.91867065 C-20.91864312 196.13770985 -20.92302537 195.35674905 -20.92754042 194.55212277 C-20.94092946 191.92675964 -20.94710753 189.30143007 -20.95323181 186.67604065 C-20.96113272 184.79697518 -20.96940166 182.91791123 -20.97801208 181.03884888 C-21.00423433 174.86022898 -21.01954031 168.6816023 -21.03379822 162.50294495 C-21.03915789 160.37616153 -21.04453539 158.24937816 -21.04993057 156.12259483 C-21.07155993 147.27563343 -21.09029656 138.42867385 -21.10155296 129.5816927 C-21.11779146 116.90231189 -21.15096637 104.22323757 -21.20795381 91.54397231 C-21.24665553 82.62921084 -21.26618596 73.71453132 -21.27147353 64.79968804 C-21.27512675 59.47512794 -21.28714518 54.15089471 -21.31957626 48.82642555 C-21.34966062 43.81537324 -21.3559673 38.80484552 -21.3441925 33.79372215 C-21.3439718 31.95713215 -21.35227433 30.12051779 -21.36984634 28.28401184 C-21.52060272 11.61727563 -21.52060272 11.61727563 -17.51719093 6.00540447 C-11.78386697 1.14044955 -7.32287346 -0.07626657 0 0 Z M-2.76036072 18.5146637 C-2.76036072 77.5846637 -2.76036072 136.6546637 -2.76036072 197.5146637 C2.22628635 193.7746784 6.59714508 190.40792745 11.05213928 186.2021637 C15.77565465 181.79214265 20.65212415 177.64550076 25.68885803 173.5927887 C28.76364648 171.08775431 31.73077977 168.47688263 34.68104553 165.8271637 C37.87034824 163.1414351 40.35085307 163.37927415 44.44047546 163.35644531 C45.08330203 163.35150734 45.7261286 163.34656936 46.38843477 163.34148175 C48.55188698 163.32606998 50.71530944 163.31773623 52.87879944 163.30934143 C54.42587548 163.29976579 55.9729489 163.2897559 57.52001953 163.27934265 C61.72842776 163.25225346 65.93684724 163.23126567 70.14529467 163.21134067 C74.54023839 163.18950583 78.93514725 163.16210492 83.33006287 163.13528442 C91.65627112 163.08532363 99.98249869 163.04039739 108.30874479 162.99726206 C119.55731446 162.93869785 130.80583831 162.87239282 142.05436707 162.80651188 C159.78276028 162.70288423 177.51119266 162.6096303 195.23963928 162.5146637 C195.23963928 114.9946637 195.23963928 67.4746637 195.23963928 18.5146637 C129.89963928 18.5146637 64.55963928 18.5146637 -2.76036072 18.5146637 Z " fill="#89CDD2" transform="translate(47.76036071777344,53.48533630371094)"/>
<path d="M0 0 C1.15947647 -0.0131424 1.15947647 -0.0131424 2.34237671 -0.02655029 C4.88898408 -0.048497 7.43384478 -0.03400976 9.98046875 -0.01708984 C11.75496757 -0.02045937 13.52946414 -0.02531313 15.30395508 -0.03158569 C19.01959243 -0.03895057 22.73462802 -0.02826427 26.45019531 -0.00488281 C31.20870359 0.02360516 35.96580186 0.00719906 40.72425842 -0.02274513 C44.3875182 -0.04082877 48.05044468 -0.03505528 51.7137146 -0.02210617 C53.46796842 -0.01877508 55.22225268 -0.02284881 56.97647095 -0.03450394 C59.43043954 -0.04723085 61.8821377 -0.02781325 64.3359375 0 C65.05816498 -0.01012115 65.78039246 -0.02024231 66.52450562 -0.03067017 C70.43695813 0.0513212 72.04579381 0.54703077 75.1159668 3.0585022 C77.10674526 5.5697431 77.85602174 6.51954435 77.79296875 9.64697266 C77.81230469 10.60603516 77.81230469 10.60603516 77.83203125 11.58447266 C76.75587264 14.92689469 74.86113571 16.44390075 72.16796875 18.64697266 C69.35371442 19.14265976 67.14353445 19.33329043 64.3359375 19.29394531 C63.56295319 19.30270691 62.78996887 19.31146851 61.99356079 19.32049561 C59.44695342 19.34244231 56.90209272 19.32795508 54.35546875 19.31103516 C52.58096993 19.31440468 50.80647336 19.31925845 49.03198242 19.32553101 C45.31634507 19.33289588 41.60130948 19.32220958 37.88574219 19.29882812 C33.12723391 19.27034016 28.37013564 19.28674625 23.61167908 19.31669044 C19.9484193 19.33477408 16.28549282 19.3290006 12.6222229 19.31605148 C10.86796908 19.3127204 9.11368482 19.31679412 7.35946655 19.32844925 C4.90549796 19.34117616 2.4537998 19.32175856 0 19.29394531 C-1.08334122 19.30912704 -1.08334122 19.30912704 -2.18856812 19.32461548 C-6.10102063 19.24262411 -7.70985631 18.74691454 -10.7800293 16.23544312 C-12.77080776 13.72420221 -13.52008424 12.77440097 -13.45703125 9.64697266 C-13.46992187 9.00759766 -13.4828125 8.36822266 -13.49609375 7.70947266 C-11.36320374 1.08496721 -6.22861581 -0.08728661 0 0 Z " fill="#88CDD1" transform="translate(111.83203125,152.35302734375)"/>
<path d="M0 0 C1.15947647 -0.0131424 1.15947647 -0.0131424 2.34237671 -0.02655029 C4.88898408 -0.048497 7.43384478 -0.03400976 9.98046875 -0.01708984 C11.75496757 -0.02045937 13.52946414 -0.02531313 15.30395508 -0.03158569 C19.01959243 -0.03895057 22.73462802 -0.02826427 26.45019531 -0.00488281 C31.20870359 0.02360516 35.96580186 0.00719906 40.72425842 -0.02274513 C44.3875182 -0.04082877 48.05044468 -0.03505528 51.7137146 -0.02210617 C53.46796842 -0.01877508 55.22225268 -0.02284881 56.97647095 -0.03450394 C59.43043954 -0.04723085 61.8821377 -0.02781325 64.3359375 0 C65.05816498 -0.01012115 65.78039246 -0.02024231 66.52450562 -0.03067017 C70.43695813 0.0513212 72.04579381 0.54703077 75.1159668 3.0585022 C77.10674526 5.5697431 77.85602174 6.51954435 77.79296875 9.64697266 C77.81230469 10.60603516 77.81230469 10.60603516 77.83203125 11.58447266 C76.75587264 14.92689469 74.86113571 16.44390075 72.16796875 18.64697266 C69.35371442 19.14265976 67.14353445 19.33329043 64.3359375 19.29394531 C63.56295319 19.30270691 62.78996887 19.31146851 61.99356079 19.32049561 C59.44695342 19.34244231 56.90209272 19.32795508 54.35546875 19.31103516 C52.58096993 19.31440468 50.80647336 19.31925845 49.03198242 19.32553101 C45.31634507 19.33289588 41.60130948 19.32220958 37.88574219 19.29882812 C33.12723391 19.27034016 28.37013564 19.28674625 23.61167908 19.31669044 C19.9484193 19.33477408 16.28549282 19.3290006 12.6222229 19.31605148 C10.86796908 19.3127204 9.11368482 19.31679412 7.35946655 19.32844925 C4.90549796 19.34117616 2.4537998 19.32175856 0 19.29394531 C-1.08334122 19.30912704 -1.08334122 19.30912704 -2.18856812 19.32461548 C-6.10102063 19.24262411 -7.70985631 18.74691454 -10.7800293 16.23544312 C-12.77080776 13.72420221 -13.52008424 12.77440097 -13.45703125 9.64697266 C-13.46992187 9.00759766 -13.4828125 8.36822266 -13.49609375 7.70947266 C-11.36320374 1.08496721 -6.22861581 -0.08728661 0 0 Z " fill="#88CDD1" transform="translate(111.83203125,116.35302734375)"/>
</svg>
