<?xml version="1.0" encoding="UTF-8"?>
<svg version="1.1" xmlns="http://www.w3.org/2000/svg" width="288" height="288">
<path d="M0 0 C0.639375 -0.01289063 1.27875 -0.02578125 1.9375 -0.0390625 C5.49002471 1.10474281 6.82193908 2.58471187 9 5.625 C9.60927104 9.42001667 9.47059016 13.10668166 9.3125 16.9375 C9.209375 20.464375 9.10625 23.99125 9 27.625 C20.88 27.625 32.76 27.625 45 27.625 C44.80286793 20.60899519 44.80286793 20.60899519 44.54956055 13.5949707 C44.44750191 6.39621507 44.44750191 6.39621507 47.26953125 2.45703125 C51.02101714 -0.06006014 51.02101714 -0.06006014 54 0 C54.639375 -0.01289063 55.27875 -0.02578125 55.9375 -0.0390625 C59.43855261 1.08817035 60.77920172 2.68434737 63 5.625 C63.61977995 9.41301688 63.47158536 13.11210897 63.3125 16.9375 C63.27866211 18.47760742 63.27866211 18.47760742 63.24414062 20.04882812 C63.18537575 22.5757179 63.10327849 25.09960255 63 27.625 C63.62116699 27.61389694 64.24233398 27.60279388 64.88232422 27.59135437 C71.37143516 27.48038411 77.86027476 27.40517672 84.35009766 27.3503418 C86.76915442 27.32526128 89.18813589 27.29118851 91.60693359 27.24780273 C95.09231184 27.18686955 98.57668464 27.15872437 102.0625 27.13671875 C103.13677246 27.11091232 104.21104492 27.0851059 105.31787109 27.05851746 C112.10788624 27.05600457 116.92554944 27.89691141 122 32.625 C126.7786725 38.55592637 126.53231075 44.05678728 126.390625 51.46484375 C126.38496521 52.58693741 126.37930542 53.70903107 126.37347412 54.86512756 C126.35117341 58.43136151 126.30098649 61.99657228 126.25 65.5625 C126.22992695 67.98761565 126.2116776 70.41274712 126.1953125 72.83789062 C126.15132925 78.76727323 126.08447948 84.69606349 126 90.625 C126.64026123 90.59881592 127.28052246 90.57263184 127.94018555 90.5456543 C130.85570502 90.44138719 133.77083198 90.37658247 136.6875 90.3125 C137.69490234 90.27060547 138.70230469 90.22871094 139.74023438 90.18554688 C147.2539235 90.06155861 147.2539235 90.06155861 151.16552734 93.015625 C152.92404824 95.51696534 153.68551035 96.62368664 153.625 99.625 C153.63789063 100.264375 153.65078125 100.90375 153.6640625 101.5625 C152.52025719 105.11502471 151.04028813 106.44693908 148 108.625 C144.20498333 109.23427104 140.51831834 109.09559016 136.6875 108.9375 C131.3971875 108.7828125 131.3971875 108.7828125 126 108.625 C126 120.505 126 132.385 126 144.625 C133.01600481 144.42786793 133.01600481 144.42786793 140.0300293 144.17456055 C147.22878493 144.07250191 147.22878493 144.07250191 151.16796875 146.89453125 C153.68506014 150.64601714 153.68506014 150.64601714 153.625 153.625 C153.63789063 154.264375 153.65078125 154.90375 153.6640625 155.5625 C152.53682965 159.06355261 150.94065263 160.40420172 148 162.625 C144.21198312 163.24477995 140.51289103 163.09658536 136.6875 162.9375 C135.14739258 162.90366211 135.14739258 162.90366211 133.57617188 162.86914062 C131.0492821 162.81037575 128.52539745 162.72827849 126 162.625 C126.00888245 163.2483876 126.01776489 163.87177521 126.0269165 164.51405334 C126.11560991 171.01928512 126.17582559 177.5243443 126.21972656 184.0300293 C126.23980571 186.45588156 126.26707475 188.88168563 126.30175781 191.30737305 C126.35043678 194.80008862 126.3730065 198.29216259 126.390625 201.78515625 C126.41127014 202.86459 126.43191528 203.94402374 126.45318604 205.0561676 C126.45508918 211.48471457 126.09111132 215.54742249 122 220.625 C116.00903622 226.20704424 109.92864153 226.30224356 102.0625 226.11328125 C100.94182129 226.10620651 99.82114258 226.09913177 98.66650391 226.09184265 C95.11030464 226.06400168 91.55571809 226.00127862 88 225.9375 C85.57944993 225.912404 83.15887501 225.88959312 80.73828125 225.86914062 C74.82497673 225.81420877 68.91260362 225.73068491 63 225.625 C63.02618408 226.26526123 63.05236816 226.90552246 63.0793457 227.56518555 C63.18361281 230.48070502 63.24841753 233.39583198 63.3125 236.3125 C63.3753418 237.82360352 63.3753418 237.82360352 63.43945312 239.36523438 C63.56344139 246.8789235 63.56344139 246.8789235 60.609375 250.79052734 C58.10803466 252.54904824 57.00131336 253.31051035 54 253.25 C53.360625 253.26289063 52.72125 253.27578125 52.0625 253.2890625 C48.50997529 252.14525719 47.17806092 250.66528813 45 247.625 C44.39072896 243.82998333 44.52940984 240.14331834 44.6875 236.3125 C44.790625 232.785625 44.89375 229.25875 45 225.625 C33.12 225.625 21.24 225.625 9 225.625 C9.19713207 232.64100481 9.19713207 232.64100481 9.45043945 239.6550293 C9.55249809 246.85378493 9.55249809 246.85378493 6.73046875 250.79296875 C2.97898286 253.31006014 2.97898286 253.31006014 0 253.25 C-0.639375 253.26289063 -1.27875 253.27578125 -1.9375 253.2890625 C-5.43855261 252.16182965 -6.77920172 250.56565263 -9 247.625 C-9.61977995 243.83698312 -9.47158536 240.13789103 -9.3125 236.3125 C-9.28994141 235.28576172 -9.26738281 234.25902344 -9.24414062 233.20117188 C-9.18537575 230.6742821 -9.10327849 228.15039745 -9 225.625 C-9.93175049 225.64165459 -9.93175049 225.64165459 -10.88232422 225.65864563 C-17.37143516 225.76961589 -23.86027476 225.84482328 -30.35009766 225.8996582 C-32.76915442 225.92473872 -35.18813589 225.95881149 -37.60693359 226.00219727 C-41.09231184 226.06313045 -44.57668464 226.09127563 -48.0625 226.11328125 C-49.13677246 226.13908768 -50.21104492 226.1648941 -51.31787109 226.19148254 C-58.10788624 226.19399543 -62.92554944 225.35308859 -68 220.625 C-72.7786725 214.69407363 -72.53231075 209.19321272 -72.390625 201.78515625 C-72.38496521 200.66306259 -72.37930542 199.54096893 -72.37347412 198.38487244 C-72.35117341 194.81863849 -72.30098649 191.25342772 -72.25 187.6875 C-72.22992695 185.26238435 -72.2116776 182.83725288 -72.1953125 180.41210938 C-72.15132925 174.48272677 -72.08447948 168.55393651 -72 162.625 C-72.96039185 162.66427612 -72.96039185 162.66427612 -73.94018555 162.7043457 C-76.85570502 162.80861281 -79.77083198 162.87341753 -82.6875 162.9375 C-84.19860352 163.0003418 -84.19860352 163.0003418 -85.74023438 163.06445312 C-93.2539235 163.18844139 -93.2539235 163.18844139 -97.16552734 160.234375 C-98.92404824 157.73303466 -99.68551035 156.62631336 -99.625 153.625 C-99.63789062 152.985625 -99.65078125 152.34625 -99.6640625 151.6875 C-98.52025719 148.13497529 -97.04028813 146.80306092 -94 144.625 C-90.20498333 144.01572896 -86.51831834 144.15440984 -82.6875 144.3125 C-79.160625 144.415625 -75.63375 144.51875 -72 144.625 C-72 132.745 -72 120.865 -72 108.625 C-79.01600481 108.82213207 -79.01600481 108.82213207 -86.0300293 109.07543945 C-93.22878493 109.17749809 -93.22878493 109.17749809 -97.16796875 106.35546875 C-99.68506014 102.60398286 -99.68506014 102.60398286 -99.625 99.625 C-99.63789062 98.985625 -99.65078125 98.34625 -99.6640625 97.6875 C-98.53682965 94.18644739 -96.94065263 92.84579828 -94 90.625 C-90.21198312 90.00522005 -86.51289103 90.15341464 -82.6875 90.3125 C-81.66076172 90.33505859 -80.63402344 90.35761719 -79.57617188 90.38085938 C-77.0492821 90.43962425 -74.52539745 90.52172151 -72 90.625 C-72.01110306 90.00383301 -72.02220612 89.38266602 -72.03364563 88.74267578 C-72.14461589 82.25356484 -72.21982328 75.76472524 -72.2746582 69.27490234 C-72.29973872 66.85584558 -72.33381149 64.43686411 -72.37719727 62.01806641 C-72.43813045 58.53268816 -72.46627563 55.04831536 -72.48828125 51.5625 C-72.51408768 50.48822754 -72.5398941 49.41395508 -72.56648254 48.30712891 C-72.56899543 41.51711376 -71.72808859 36.69945056 -67 31.625 C-61.06907363 26.8463275 -55.56821272 27.09268925 -48.16015625 27.234375 C-47.03806259 27.24003479 -45.91596893 27.24569458 -44.75987244 27.25152588 C-41.19363849 27.27382659 -37.62842772 27.32401351 -34.0625 27.375 C-31.63738435 27.39507305 -29.21225288 27.4133224 -26.78710938 27.4296875 C-20.85772677 27.47367075 -14.92893651 27.54052052 -9 27.625 C-9.02618408 26.98473877 -9.05236816 26.34447754 -9.0793457 25.68481445 C-9.18361281 22.76929498 -9.24841753 19.85416802 -9.3125 16.9375 C-9.35439453 15.93009766 -9.39628906 14.92269531 -9.43945312 13.88476562 C-9.56344139 6.3710765 -9.56344139 6.3710765 -6.609375 2.45947266 C-4.10803466 0.70095176 -3.00131336 -0.06051035 0 0 Z M-54 45.625 C-54 99.085 -54 152.545 -54 207.625 C-0.54 207.625 52.92 207.625 108 207.625 C108 154.165 108 100.705 108 45.625 C54.54 45.625 1.08 45.625 -54 45.625 Z " fill="#89CDD1" transform="translate(117,17.375)"/>
<path d="M0 0 C1.37093536 -0.00337114 2.7418678 -0.00822625 4.11279297 -0.01449585 C6.98108474 -0.02185344 9.84859609 -0.0111996 12.71679688 0.01220703 C16.38583493 0.04069651 20.05304436 0.02428622 23.72201538 -0.00565529 C26.55149002 -0.02375983 29.38053406 -0.01795631 32.21002197 -0.00501633 C34.21798903 -0.00007872 36.2259731 -0.01521214 38.23388672 -0.03067017 C43.19441106 0.03316371 46.98646515 0.09086679 51.45068359 2.33837891 C54.23332606 7.86552322 53.83600436 13.44157141 53.7890625 19.5390625 C53.79243364 20.90999786 53.79728875 22.2809303 53.80355835 23.65185547 C53.81091594 26.52014724 53.8002621 29.38765859 53.77685547 32.25585938 C53.74836599 35.92489743 53.76477628 39.59210686 53.79471779 43.26107788 C53.81282233 46.09055252 53.80701881 48.91959656 53.79407883 51.74908447 C53.78914122 53.75705153 53.80427464 55.7650356 53.81973267 57.77294922 C53.75589879 62.73347356 53.69819571 66.52552765 51.45068359 70.98974609 C45.92353928 73.77238856 40.34749109 73.37506686 34.25 73.328125 C32.87906464 73.33149614 31.5081322 73.33635125 30.13720703 73.34262085 C27.26891526 73.34997844 24.40140391 73.3393246 21.53320312 73.31591797 C17.86416507 73.28742849 14.19695564 73.30383878 10.52798462 73.33378029 C7.69850998 73.35188483 4.86946594 73.34608131 2.03997803 73.33314133 C0.03201097 73.32820372 -1.9759731 73.34333714 -3.98388672 73.35879517 C-8.94441106 73.29496129 -12.73646515 73.23725821 -17.20068359 70.98974609 C-19.98332606 65.46260178 -19.58600436 59.88655359 -19.5390625 53.7890625 C-19.54243364 52.41812714 -19.54728875 51.0471947 -19.55355835 49.67626953 C-19.56091594 46.80797776 -19.5502621 43.94046641 -19.52685547 41.07226562 C-19.49836599 37.40322757 -19.51477628 33.73601814 -19.54471779 30.06704712 C-19.56282233 27.23757248 -19.55701881 24.40852844 -19.54407883 21.57904053 C-19.53914122 19.57107347 -19.55427464 17.5630894 -19.56973267 15.55517578 C-19.50589879 10.59465144 -19.44819571 6.80259735 -17.20068359 2.33837891 C-11.67353928 -0.44426356 -6.09749109 -0.04694186 0 0 Z M-0.875 18.6640625 C-0.875 30.5440625 -0.875 42.4240625 -0.875 54.6640625 C11.005 54.6640625 22.885 54.6640625 35.125 54.6640625 C35.125 42.7840625 35.125 30.9040625 35.125 18.6640625 C23.245 18.6640625 11.365 18.6640625 -0.875 18.6640625 Z " fill="#88CDD1" transform="translate(126.875,107.3359375)"/>
</svg>
