<?xml version="1.0" encoding="UTF-8"?>
<svg version="1.1" xmlns="http://www.w3.org/2000/svg" width="288" height="288">
<path d="M0 0 C1.16752808 -0.01052147 1.16752808 -0.01052147 2.35864258 -0.02125549 C4.85894615 -0.03867406 7.35901297 -0.04510828 9.859375 -0.046875 C10.71285522 -0.04754974 11.56633545 -0.04822449 12.44567871 -0.04891968 C25.05536501 -0.03306049 37.27843449 0.32307085 49.609375 3.203125 C50.72650879 3.45255859 50.72650879 3.45255859 51.86621094 3.70703125 C74.76265571 8.96163396 99.24720096 19.64872023 112.671875 39.828125 C118.01037562 48.44036264 119.05528141 56.60636385 119.02929688 66.58496094 C119.03776642 67.79434326 119.04623596 69.00372559 119.05496216 70.24975586 C119.0742547 73.54348043 119.08011607 76.83685507 119.07821465 80.13062572 C119.07809423 82.89355911 119.08668757 85.65644064 119.09499216 88.41935945 C119.11417564 94.94660095 119.1171292 101.47371461 119.11035156 108.00097656 C119.10372031 114.7022621 119.12654925 121.40299589 119.16366529 128.10416961 C119.19450724 133.88543003 119.20570658 139.66651434 119.20182848 145.44785523 C119.19977518 148.88841803 119.20501643 152.32855154 119.22972107 155.76903534 C119.25201864 159.61436364 119.24215123 163.45838458 119.22460938 167.30371094 C119.23787262 168.421026 119.25113586 169.53834106 119.26480103 170.68951416 C119.11515472 184.90873685 113.27633818 195.33248538 103.55078125 205.31640625 C79.30764929 228.22505388 43.3758998 234.66457644 11.234375 234.578125 C9.98330963 234.57631226 9.98330963 234.57631226 8.70697021 234.57446289 C-25.03245248 234.44228733 -59.5917544 227.04873272 -84.6328125 203.0546875 C-91.97685284 195.37808684 -97.47841069 185.80648019 -97.54452515 175.02613831 C-97.55312561 173.97924332 -97.56172607 172.93234833 -97.57058716 171.85372925 C-97.57484711 170.71034088 -97.57910706 169.56695251 -97.58349609 168.38891602 C-97.59167358 167.18026382 -97.59985107 165.97161163 -97.60827637 164.72633362 C-97.63311906 160.71990282 -97.64980575 156.71350979 -97.6640625 152.70703125 C-97.66942588 151.3229821 -97.6748034 149.938933 -97.68019485 148.55488396 C-97.70182195 142.79095774 -97.7205525 137.02703424 -97.73181725 131.26307774 C-97.74801511 123.03144159 -97.78109247 114.80028052 -97.83821809 106.5688234 C-97.87709636 100.76646463 -97.89647135 94.96423192 -97.90173781 89.16174644 C-97.9053691 85.70429473 -97.91714825 82.24735031 -97.94984055 78.79004097 C-97.98590491 74.92051913 -97.98150518 71.05157819 -97.97412109 67.18188477 C-97.99052643 66.05671448 -98.00693176 64.93154419 -98.02383423 63.77227783 C-97.9132782 49.52132427 -92.07800575 39.09472459 -82.33203125 29.08984375 C-61.39968093 9.30973289 -28.36149894 0.17161742 0 0 Z M-69.63671875 43.3046875 C-76.19099691 50.39907321 -78.77214059 56.52585397 -78.66796875 66.1328125 C-78.26705958 70.57104638 -76.90266798 73.57373798 -74.390625 77.203125 C-74.01292969 77.77289063 -73.63523437 78.34265625 -73.24609375 78.9296875 C-60.04802245 96.39420481 -34.28567503 102.90277957 -13.890625 106.453125 C-11.72796345 106.7356838 -9.56054391 106.98313322 -7.390625 107.203125 C-6.73255859 107.27015625 -6.07449219 107.3371875 -5.39648438 107.40625 C26.34229532 110.4097378 63.5356236 105.65857747 88.984375 84.828125 C94.1780875 80.03559697 99.19434185 73.79570492 99.84765625 66.56640625 C100.01441262 59.71184165 99.54346431 54.88707737 95.609375 49.203125 C95.23167969 48.63335937 94.85398438 48.06359375 94.46484375 47.4765625 C81.26677245 30.01204519 55.50442503 23.50347043 35.109375 19.953125 C32.94671345 19.6705662 30.77929391 19.42311678 28.609375 19.203125 C27.95130859 19.13609375 27.29324219 19.0690625 26.61523438 19 C-5.28867397 15.98088583 -45.04191836 20.60969424 -69.63671875 43.3046875 Z M-79.390625 100.203125 C-79.8272385 120.32372154 -79.8272385 120.32372154 -69.390625 137.203125 C-47.6691736 157.17541121 -14.01780124 162.91487262 14.54541016 162.12158203 C41.12486651 160.9725414 73.49913848 155.67837841 92.609375 135.203125 C101.50506095 124.40122063 100.88471636 113.52658737 100.609375 100.203125 C97.21124601 101.79373857 94.18344972 103.77524298 91.046875 105.828125 C67.10659869 120.81150728 39.08822275 125.65304382 11.234375 125.578125 C9.98330963 125.57631226 9.98330963 125.57631226 8.70697021 125.57446289 C-18.96097773 125.46607258 -52.77898553 121.23951902 -74.6640625 102.46484375 C-77.05675858 99.9903092 -77.05675858 99.9903092 -79.390625 100.203125 Z M-79.390625 154.203125 C-79.8272385 174.32372154 -79.8272385 174.32372154 -69.390625 191.203125 C-47.6691736 211.17541121 -14.01780124 216.91487262 14.54541016 216.12158203 C41.12486651 214.9725414 73.49913848 209.67837841 92.609375 189.203125 C101.50506095 178.40122063 100.88471636 167.52658737 100.609375 154.203125 C97.21124601 155.79373857 94.18344972 157.77524298 91.046875 159.828125 C67.10659869 174.81150728 39.08822275 179.65304382 11.234375 179.578125 C9.98330963 179.57631226 9.98330963 179.57631226 8.70697021 179.57446289 C-18.96097773 179.46607258 -52.77898553 175.23951902 -74.6640625 156.46484375 C-77.05675858 153.9903092 -77.05675858 153.9903092 -79.390625 154.203125 Z " fill="#89CDD2" transform="translate(133.390625,26.796875)"/>
</svg>
