<?xml version="1.0" encoding="UTF-8"?>
<svg version="1.1" xmlns="http://www.w3.org/2000/svg" width="100" height="100">
<path d="M0 0 C-0.10699219 1.11117188 -0.21398438 2.22234375 -0.32421875 3.3671875 C-1.33296862 15.17979466 -0.84811037 23.99466468 6.265625 33.9609375 C11.76807702 40.4300365 19.51491095 44.96523304 28 46 C33.1744043 46.17248014 38.00433427 45.82510438 43.1171875 45.0234375 C43.73851563 45.01570313 44.35984375 45.00796875 45 45 C45.66 45.66 46.32 46.32 47 47 C46.80297473 55.07803599 41.29530473 62.41132727 36.00390625 68.1484375 C27.17585236 76.30535279 15.98931559 79.7241855 4.10546875 79.33984375 C-7.53671436 78.06579352 -17.16304349 73.35869564 -25.09765625 64.71484375 C-32.58350239 54.94033128 -35.45580515 43.16637162 -34 31 C-31.46876231 19.46722605 -25.7756073 9.77931671 -16 3 C-5.72461879 -2.96029837 -5.72461879 -2.96029837 0 0 Z M-16.8984375 13.80859375 C-23.17036371 20.34865063 -26.87651561 28.0032895 -27.0625 37.03515625 C-26.68992248 46.98996191 -23.57355569 55.04377806 -16.7890625 62.40234375 C-9.59088701 68.83040876 -1.99294587 71.45518674 7.4375 72.3125 C17.89326877 71.3953273 26.57204879 67.10811845 33.5625 59.25 C35.60640945 56.93346654 35.60640945 56.93346654 36 54 C35.03320312 53.90203125 34.06640625 53.8040625 33.0703125 53.703125 C19.96527425 52.19799189 8.6314789 49.27969114 -0.01171875 38.48828125 C-6.25914367 29.30705511 -8.31143424 19.94582117 -9 9 C-12.44084204 9 -14.43314249 11.58982824 -16.8984375 13.80859375 Z " fill="#89CDD2" transform="translate(46,9)"/>
</svg>
