<?xml version="1.0" encoding="UTF-8"?>
<svg version="1.1" xmlns="http://www.w3.org/2000/svg" width="288" height="288">
<path d="M0 0 C3 1.6875 3 1.6875 5 5 C5 9.29 5 13.58 5 18 C16.88 18 28.76 18 41 18 C41 13.71 41 9.42 41 5 C43 1.6875 43 1.6875 46 0 C50.33742738 -1.02314315 53.12443125 -0.49250742 57 1.6875 C59 5 59 5 59 18 C70.88 18 82.76 18 95 18 C95 13.71 95 9.42 95 5 C97 1.6875 97 1.6875 100 0 C104.33742738 -1.02314315 107.12443125 -0.49250742 111 1.6875 C113.31473757 5.5212841 113.21250749 7.30157615 113.125 11.70703125 C113.10695312 12.88370361 113.08890625 14.06037598 113.0703125 15.27270508 C113.04710937 16.1727124 113.02390625 17.07271973 113 18 C113.91289795 17.97381592 114.8257959 17.94763184 115.76635742 17.9206543 C119.16772344 17.83521458 122.56794258 17.77265001 125.9699707 17.7253418 C127.43955525 17.70026356 128.90901587 17.66619144 130.37817383 17.62280273 C132.49591681 17.56184501 134.61200576 17.53372684 136.73046875 17.51171875 C138.00301514 17.48553467 139.27556152 17.45935059 140.58666992 17.43237305 C145.02462902 18.17039285 146.23762699 19.48952161 149 23 C149.49117883 25.82395466 149.67389372 28.04372286 149.62818909 30.86100769 C149.63528347 31.64634976 149.64237786 32.43169183 149.64968723 33.24083215 C149.66727424 35.86963171 149.64915941 38.49695401 149.63110352 41.12573242 C149.63624229 43.01170525 149.64352325 44.89767329 149.65278625 46.78363037 C149.67132009 51.90592363 149.65834651 57.02769715 149.63869596 62.14996886 C149.62231256 67.51448025 149.63112249 72.87895863 149.63621521 78.2434845 C149.64073845 87.25786637 149.62485677 96.27204093 149.59692383 105.28637695 C149.56491953 115.69454467 149.56486814 126.10233744 149.5821386 136.5105316 C149.59803239 146.53199963 149.59124861 156.55333077 149.57420158 166.57479286 C149.56734524 170.83413672 149.56834916 175.09337038 149.57574654 179.35271263 C149.58343724 184.37694417 149.57119243 189.40075207 149.54389763 194.4249115 C149.53704003 196.26385555 149.5368875 198.10283936 149.54411316 199.941782 C149.59227921 213.80298494 148.2626888 223.45440022 138.37109375 233.80078125 C131.83879882 239.85956551 124.90962601 243.2384162 115.87896729 243.26742554 C114.07081543 243.28022049 114.07081543 243.28022049 112.22613525 243.29327393 C110.91691101 243.29236755 109.60768677 243.29146118 108.25878906 243.29052734 C106.85542444 243.29651681 105.4520631 243.30332331 104.04870605 243.31088257 C100.24684055 243.32850959 96.44506515 243.33323661 92.64316273 243.33451414 C90.26406996 243.33593843 87.8849999 243.34021334 85.50591278 243.34550858 C77.19500786 243.36399956 68.88416699 243.37218056 60.57324219 243.37060547 C52.84448458 243.36940506 45.11600668 243.39048992 37.3873198 243.4220928 C30.73740276 243.44830875 24.08757676 243.45897051 17.43760848 243.45769465 C13.47234616 243.45718648 9.50733242 243.4627887 5.54212189 243.48405075 C1.80896753 243.50352264 -1.92370345 243.50349728 -5.65687561 243.48901749 C-7.66594811 243.48595458 -9.67502111 243.50254391 -11.684021 243.51989746 C-23.51630495 243.43831644 -31.24168371 240.55396723 -39.80078125 232.37109375 C-46.49631458 225.15228606 -49.30682242 217.8603566 -49.27415466 207.98509216 C-49.27939134 207.19536784 -49.28462802 206.40564351 -49.29002339 205.59198815 C-49.30498321 202.95507251 -49.30572764 200.31835159 -49.30639648 197.68139648 C-49.3140204 195.78716709 -49.32244829 193.89294079 -49.33161926 191.99871826 C-49.35354161 186.86046596 -49.36235952 181.72227315 -49.36744571 176.58397937 C-49.37109036 173.37407969 -49.37733083 170.16419558 -49.3844471 166.95430183 C-49.40892864 155.75736939 -49.42199179 144.56048323 -49.42553711 133.36352539 C-49.42917677 122.92284774 -49.4591063 112.48246327 -49.50094169 102.0418753 C-49.53560291 93.07783353 -49.55108479 84.11388917 -49.55178314 75.14978081 C-49.55257704 69.79575506 -49.56136832 64.44202838 -49.58978081 59.08807182 C-49.61589168 54.05562945 -49.61820578 49.02373571 -49.60212517 43.99125671 C-49.60030542 42.14373646 -49.60704868 40.29618514 -49.62294388 38.44873238 C-49.64331306 35.92780883 -49.6329084 33.40882181 -49.61473083 30.88792419 C-49.6279308 30.1556281 -49.64113077 29.423332 -49.65473074 28.66884512 C-49.590953 24.80095686 -49.09480599 23.12059351 -46.67491245 20.04248142 C-43.17220274 17.3679193 -41.10298552 17.42174927 -36.73046875 17.51171875 C-35.70896477 17.52233086 -35.70896477 17.52233086 -34.66682434 17.53315735 C-32.50590005 17.56099931 -30.34763178 17.62370473 -28.1875 17.6875 C-26.71683448 17.71259668 -25.24612807 17.73540747 -23.77539062 17.75585938 C-20.18274043 17.81078812 -16.59162972 17.89698353 -13 18 C-13.02320313 17.09999268 -13.04640625 16.19998535 -13.0703125 15.27270508 C-13.08835938 14.09603271 -13.10640625 12.91936035 -13.125 11.70703125 C-13.14820313 10.53889893 -13.17140625 9.3707666 -13.1953125 8.16723633 C-13 5 -13 5 -11 1.6875 C-7.12443125 -0.49250742 -4.33742738 -1.02314315 0 0 Z M-31 36 C-31.06951534 58.12290386 -31.12301892 80.24578132 -31.15543652 102.36877251 C-31.17089019 112.64139403 -31.19195102 122.91394634 -31.22631836 133.18652344 C-31.25626664 142.14250935 -31.2755859 151.09844512 -31.28226548 160.05447972 C-31.28616854 164.79444851 -31.29530998 169.5342739 -31.31719017 174.27419662 C-31.33764114 178.74094297 -31.34381647 183.20748763 -31.33932304 187.67427635 C-31.34014441 189.30844534 -31.34605858 190.94262148 -31.35761642 192.5767498 C-31.86964734 206.56010702 -31.86964734 206.56010702 -26.401721 218.92643547 C-19.4258841 225.83354877 -9.87775471 225.29474831 -0.68408203 225.2746582 C0.52997314 225.27976913 1.74402832 225.28488007 2.99487305 225.29014587 C6.30496562 225.30161757 9.61480677 225.30412296 12.92490149 225.30158257 C15.69799585 225.30050766 18.47106749 225.3054095 21.24415696 225.310188 C27.79185784 225.32125744 34.33950134 225.32173519 40.88720703 225.31567383 C47.61963386 225.30963685 54.35185154 225.32194381 61.0842427 225.3432439 C66.88495038 225.36091474 72.68559181 225.36685262 78.48632538 225.36360615 C81.94178661 225.36180173 85.39709864 225.3643446 88.85253525 225.37832069 C92.71020319 225.39334183 96.56760901 225.38388112 100.42529297 225.37231445 C101.5549649 225.37995819 102.68463684 225.38760193 103.84854126 225.39547729 C111.03549063 225.34802531 119.14297136 225.17237025 124.94306755 220.40184498 C130.56255414 214.6653708 131.25187872 207.27752701 131.24050903 199.54614258 C131.24221788 198.84101973 131.24392673 198.13589687 131.24568737 197.40940666 C131.24895455 195.07100802 131.23802491 192.73290299 131.22705078 190.39453125 C131.22648607 188.70864366 131.2268044 187.02275559 131.22793579 185.33686829 C131.22850795 180.77752659 131.21677582 176.21829084 131.20278788 171.65897369 C131.19025768 166.88772625 131.18910821 162.1164762 131.18673706 157.34521484 C131.18052901 148.31792787 131.16412734 139.29068952 131.14403808 130.26342392 C131.12165805 119.98290878 131.11068036 109.70239128 131.10064721 99.42185783 C131.07976051 78.28121071 131.04419325 57.14061014 131 36 C125.06 36 119.12 36 113 36 C112.9175 38.0625 112.835 40.125 112.75 42.25 C112.50698016 48.32549596 112.50698016 48.32549596 110.203125 51.390625 C107.86591006 53.09795222 106.84947492 53.54452305 104 53.5 C103.34 53.5103125 102.68 53.520625 102 53.53125 C100 53 100 53 96 49 C95.67 44.71 95.34 40.42 95 36 C83.12 36 71.24 36 59 36 C58.67 40.29 58.34 44.58 58 49 C54 53 54 53 52 53.53125 C51.34 53.5209375 50.68 53.510625 50 53.5 C49.34 53.5103125 48.68 53.520625 48 53.53125 C46 53 46 53 42 49 C41.67 44.71 41.34 40.42 41 36 C29.12 36 17.24 36 5 36 C4.67 40.29 4.34 44.58 4 49 C0 53 0 53 -2 53.53125 C-2.99 53.51578125 -2.99 53.51578125 -4 53.5 C-4.66 53.5103125 -5.32 53.520625 -6 53.53125 C-8.99302784 52.73622698 -10.14922222 51.46233914 -12 49 C-12.81931036 44.65135269 -12.82241421 40.43964467 -13 36 C-18.94 36 -24.88 36 -31 36 Z " fill="#89CDD2" transform="translate(94,18)"/>
<path d="M0 0 C1.15947647 -0.0131424 1.15947647 -0.0131424 2.34237671 -0.02655029 C4.88898408 -0.048497 7.43384478 -0.03400976 9.98046875 -0.01708984 C11.75496757 -0.02045937 13.52946414 -0.02531313 15.30395508 -0.03158569 C19.01959243 -0.03895057 22.73462802 -0.02826427 26.45019531 -0.00488281 C31.20870359 0.02360516 35.96580186 0.00719906 40.72425842 -0.02274513 C44.3875182 -0.04082877 48.05044468 -0.03505528 51.7137146 -0.02210617 C53.46796842 -0.01877508 55.22225268 -0.02284881 56.97647095 -0.03450394 C59.43043954 -0.04723085 61.8821377 -0.02781325 64.3359375 0 C65.05816498 -0.01012115 65.78039246 -0.02024231 66.52450562 -0.03067017 C70.43695813 0.0513212 72.04579381 0.54703077 75.1159668 3.0585022 C77.10674526 5.5697431 77.85602174 6.51954435 77.79296875 9.64697266 C77.81230469 10.60603516 77.81230469 10.60603516 77.83203125 11.58447266 C76.75587264 14.92689469 74.86113571 16.44390075 72.16796875 18.64697266 C69.35371442 19.14265976 67.14353445 19.33329043 64.3359375 19.29394531 C63.56295319 19.30270691 62.78996887 19.31146851 61.99356079 19.32049561 C59.44695342 19.34244231 56.90209272 19.32795508 54.35546875 19.31103516 C52.58096993 19.31440468 50.80647336 19.31925845 49.03198242 19.32553101 C45.31634507 19.33289588 41.60130948 19.32220958 37.88574219 19.29882812 C33.12723391 19.27034016 28.37013564 19.28674625 23.61167908 19.31669044 C19.9484193 19.33477408 16.28549282 19.3290006 12.6222229 19.31605148 C10.86796908 19.3127204 9.11368482 19.31679412 7.35946655 19.32844925 C4.90549796 19.34117616 2.4537998 19.32175856 0 19.29394531 C-1.08334122 19.30912704 -1.08334122 19.30912704 -2.18856812 19.32461548 C-6.10102063 19.24262411 -7.70985631 18.74691454 -10.7800293 16.23544312 C-12.77080776 13.72420221 -13.52008424 12.77440097 -13.45703125 9.64697266 C-13.46992187 9.00759766 -13.4828125 8.36822266 -13.49609375 7.70947266 C-11.36320374 1.08496721 -6.22861581 -0.08728661 0 0 Z " fill="#88CDD1" transform="translate(111.83203125,170.35302734375)"/>
<path d="M0 0 C1.15947647 -0.0131424 1.15947647 -0.0131424 2.34237671 -0.02655029 C4.88898408 -0.048497 7.43384478 -0.03400976 9.98046875 -0.01708984 C11.75496757 -0.02045937 13.52946414 -0.02531313 15.30395508 -0.03158569 C19.01959243 -0.03895057 22.73462802 -0.02826427 26.45019531 -0.00488281 C31.20870359 0.02360516 35.96580186 0.00719906 40.72425842 -0.02274513 C44.3875182 -0.04082877 48.05044468 -0.03505528 51.7137146 -0.02210617 C53.46796842 -0.01877508 55.22225268 -0.02284881 56.97647095 -0.03450394 C59.43043954 -0.04723085 61.8821377 -0.02781325 64.3359375 0 C65.05816498 -0.01012115 65.78039246 -0.02024231 66.52450562 -0.03067017 C70.43695813 0.0513212 72.04579381 0.54703077 75.1159668 3.0585022 C77.10674526 5.5697431 77.85602174 6.51954435 77.79296875 9.64697266 C77.81230469 10.60603516 77.81230469 10.60603516 77.83203125 11.58447266 C76.75587264 14.92689469 74.86113571 16.44390075 72.16796875 18.64697266 C69.35371442 19.14265976 67.14353445 19.33329043 64.3359375 19.29394531 C63.56295319 19.30270691 62.78996887 19.31146851 61.99356079 19.32049561 C59.44695342 19.34244231 56.90209272 19.32795508 54.35546875 19.31103516 C52.58096993 19.31440468 50.80647336 19.31925845 49.03198242 19.32553101 C45.31634507 19.33289588 41.60130948 19.32220958 37.88574219 19.29882812 C33.12723391 19.27034016 28.37013564 19.28674625 23.61167908 19.31669044 C19.9484193 19.33477408 16.28549282 19.3290006 12.6222229 19.31605148 C10.86796908 19.3127204 9.11368482 19.31679412 7.35946655 19.32844925 C4.90549796 19.34117616 2.4537998 19.32175856 0 19.29394531 C-1.08334122 19.30912704 -1.08334122 19.30912704 -2.18856812 19.32461548 C-6.10102063 19.24262411 -7.70985631 18.74691454 -10.7800293 16.23544312 C-12.77080776 13.72420221 -13.52008424 12.77440097 -13.45703125 9.64697266 C-13.46992187 9.00759766 -13.4828125 8.36822266 -13.49609375 7.70947266 C-11.36320374 1.08496721 -6.22861581 -0.08728661 0 0 Z " fill="#88CDD1" transform="translate(111.83203125,134.35302734375)"/>
</svg>
