<?xml version="1.0" encoding="UTF-8"?>
<svg version="1.1" xmlns="http://www.w3.org/2000/svg" width="100" height="100">
<path d="M0 0 C0.7578125 2.26953125 0.7578125 2.26953125 1 5 C-0.6953125 6.88671875 -0.6953125 6.88671875 -3.125 8.6875 C-9.04828507 13.54976048 -12.45252826 19.47928733 -14 27 C-14.70418558 35.8023197 -11.94578452 43.8192021 -6.8671875 50.95703125 C-1.10232897 57.26460659 6.92794674 60.52150441 15.3125 61.3125 C23.83137323 60.59056159 31.61873787 57.82000389 38 52 C43.74938144 44.65014835 46.95755858 36.41599274 46 27 C43.59062716 17.39136341 39.01283631 10.7636191 31 5 C31.33 3.35 31.66 1.7 32 0 C34.40270168 -0.8790372 35.52096267 -1.21828299 37.89453125 -0.13671875 C46.33053778 6.23753466 52.26099892 14.44066011 54 25 C55.17124028 37.4382419 52.14938668 47.4778573 44.28515625 57.09765625 C37.61349707 64.39691527 29.107343 68.47725341 19.23828125 69.203125 C6.56202483 69.40621589 -2.84057172 65.91826716 -12.1875 57.375 C-20.08228239 49.18494031 -22.35564528 39.15906289 -22.20703125 28.12109375 C-21.54302505 18.11088709 -17.14834705 9.90821892 -9.90625 3.00390625 C-4.25897773 -1.55816258 -4.25897773 -1.55816258 0 0 Z " fill="#89CDD2" transform="translate(34,19)"/>
<path d="M0 0 C2.4375 0.375 2.4375 0.375 5 1 C6.49010906 3.98021812 6.18333533 7.03924191 6.203125 10.30859375 C6.20882507 11.03111832 6.21452515 11.75364288 6.22039795 12.49806213 C6.22984718 14.02709488 6.23638163 15.55614799 6.24023438 17.08520508 C6.24994812 19.42500241 6.28097377 21.76392423 6.3125 24.10351562 C6.31902937 25.58853645 6.3242801 27.07356355 6.328125 28.55859375 C6.3404718 29.2586705 6.3528186 29.95874725 6.36553955 30.68003845 C6.35210589 33.60751605 6.32245927 35.54064872 4.61230469 37.97680664 C3 39 3 39 0.875 38.8125 C-1 38 -1 38 -2 36 C-2.11072311 33.55422877 -2.16409126 31.13778745 -2.16796875 28.69140625 C-2.17296135 27.6076194 -2.17296135 27.6076194 -2.17805481 26.50193787 C-2.18311988 24.9728967 -2.18546326 23.44384447 -2.18530273 21.91479492 C-2.18748816 19.5751728 -2.2056448 17.23602297 -2.22460938 14.89648438 C-2.22754359 13.41145995 -2.2295282 11.92643328 -2.23046875 10.44140625 C-2.23765427 9.7413295 -2.24483978 9.04125275 -2.25224304 8.31996155 C-2.23497262 4.64876732 -2.0949823 3.14247344 0 0 Z " fill="#88CDD1" transform="translate(48,15)"/>
</svg>
