<?xml version="1.0" encoding="UTF-8"?>
<svg version="1.1" xmlns="http://www.w3.org/2000/svg" width="100" height="100">
<path d="M0 0 C8.23291823 6.48514788 13.48739605 14.05420266 15.09765625 24.65234375 C15.97589901 36.59306742 13.80970307 46.32731981 6.09765625 55.65234375 C-1.13864434 63.32473025 -9.03006106 68.07333569 -19.6640625 68.85546875 C-30.9013823 69.03550592 -38.98244385 66.55373182 -47.90234375 59.65234375 C-48.56234375 58.99234375 -49.22234375 58.33234375 -49.90234375 57.65234375 C-49.52734375 55.02734375 -49.52734375 55.02734375 -48.90234375 52.65234375 C-47.16015625 51.98046875 -47.16015625 51.98046875 -44.90234375 51.65234375 C-42.89453125 52.76171875 -42.89453125 52.76171875 -40.77734375 54.40234375 C-34.27198795 59.00317105 -26.93766311 61.63913736 -18.90234375 60.65234375 C-10.55985483 58.42851764 -3.03874834 55.32955845 1.88671875 47.984375 C6.43553791 39.65205933 8.42292009 31.8482532 6.03515625 22.52734375 C2.94809601 13.84498683 -1.28907286 8.21010278 -9.453125 3.8046875 C-17.3615396 0.08382258 -24.19997143 -0.4416747 -32.40234375 2.27734375 C-40.38173279 5.41170957 -46.05933737 10.51718705 -51.90234375 16.65234375 C-51.27585937 16.70132813 -50.649375 16.7503125 -50.00390625 16.80078125 C-49.18664062 16.87554687 -48.369375 16.9503125 -47.52734375 17.02734375 C-46.71523438 17.09695312 -45.903125 17.1665625 -45.06640625 17.23828125 C-42.90234375 17.65234375 -42.90234375 17.65234375 -40.90234375 19.65234375 C-41.27734375 22.27734375 -41.27734375 22.27734375 -41.90234375 24.65234375 C-45.88149534 24.68121359 -49.86062028 24.69909781 -53.83984375 24.71484375 C-55.54430664 24.72741211 -55.54430664 24.72741211 -57.28320312 24.74023438 C-58.36279297 24.74345703 -59.44238281 24.74667969 -60.5546875 24.75 C-62.0550354 24.75785522 -62.0550354 24.75785522 -63.58569336 24.76586914 C-65.90234375 24.65234375 -65.90234375 24.65234375 -66.90234375 23.65234375 C-66.98960598 21.87163129 -67.00933416 20.08751235 -67 18.3046875 C-66.99677734 17.22509766 -66.99355469 16.14550781 -66.99023438 15.03320312 C-66.98185547 13.89689453 -66.97347656 12.76058594 -66.96484375 11.58984375 C-66.96033203 10.44966797 -66.95582031 9.30949219 -66.95117188 8.13476562 C-66.93934122 5.30724024 -66.92285785 2.47981735 -66.90234375 -0.34765625 C-64.52734375 -0.97265625 -64.52734375 -0.97265625 -61.90234375 -1.34765625 C-59.31308044 1.24160706 -59.52836332 2.67939654 -59.27734375 6.27734375 C-59.20257813 7.28023437 -59.1278125 8.283125 -59.05078125 9.31640625 C-58.97730469 10.47269531 -58.97730469 10.47269531 -58.90234375 11.65234375 C-58.41765625 11.14445312 -57.93296875 10.6365625 -57.43359375 10.11328125 C-41.58299647 -6.16406288 -20.34617707 -14.67651926 0 0 Z " fill="#89CDD2" transform="translate(72.90234375,19.34765625)"/>
</svg>
