<?xml version="1.0" encoding="UTF-8"?>
<svg version="1.1" xmlns="http://www.w3.org/2000/svg" width="288" height="288">
<path d="M0 0 C1.45057065 -0.0052428 2.90113788 -0.01152168 4.35169983 -0.01878357 C7.38363755 -0.02915916 10.41510511 -0.02466825 13.44702148 -0.01000977 C17.31516388 0.00716933 21.18181951 -0.01631886 25.0497961 -0.05149937 C28.0431943 -0.07355646 31.03624131 -0.072012 34.02969551 -0.06373405 C35.4549275 -0.06291896 36.88018643 -0.06969724 38.30534172 -0.08450508 C52.15940283 -0.20640152 52.15940283 -0.20640152 57.64173889 4.0684967 C63.58146744 9.92800301 63.63730913 15.14621387 63.71594238 23.24267578 C63.70878189 24.64225818 63.70057774 26.04183558 63.69140625 27.44140625 C63.69410498 28.89437113 63.69799057 30.34733423 63.70300293 31.80029297 C63.70888018 34.83643899 63.70039317 37.87211233 63.68164062 40.90820312 C63.65885126 44.78524404 63.67198402 48.66117715 63.69593048 52.53817749 C63.71043708 55.53580966 63.70576045 58.53318245 63.69541931 61.53082275 C63.6927654 62.95965712 63.69597446 64.38851562 63.70533752 65.81732178 C63.77876248 80.16889018 63.77876248 80.16889018 59.16015625 85.56640625 C53.20285711 91.43362092 46.32749155 91.29930027 38.33590698 91.24788284 C37.28984787 91.23926287 37.28984787 91.23926287 36.22265625 91.23046875 C34.77351475 91.23384354 33.32437603 91.23870166 31.87524414 91.2449646 C28.84917045 91.25230499 25.82383849 91.2417239 22.79785156 91.21826172 C18.9375351 91.1897738 15.07895705 91.20619333 11.21870422 91.23612404 C8.2295647 91.2542751 5.24083086 91.24840377 2.25167847 91.23548508 C0.829252 91.2321725 -0.59321246 91.2361618 -2.01559448 91.24788284 C-16.97448042 91.34412751 -16.97448042 91.34412751 -22.83984375 85.56640625 C-28.27892369 79.1995308 -27.44156216 71.74650427 -27.40625 63.7265625 C-27.4114928 62.27599185 -27.41777168 60.82542462 -27.42503357 59.37486267 C-27.43540916 56.34292495 -27.43091825 53.31145739 -27.41625977 50.27954102 C-27.39908067 46.41139862 -27.42256886 42.54474299 -27.45774937 38.6767664 C-27.47980646 35.6833682 -27.478262 32.69032119 -27.46998405 29.69686699 C-27.46916896 28.271635 -27.47594724 26.84637607 -27.49075508 25.42122078 C-27.61264593 11.56779601 -27.61264593 11.56779601 -23.33789062 6.08468628 C-16.5743523 -0.7702028 -9.15028534 -0.04028911 0 0 Z M-8.83984375 18.56640625 C-8.83984375 36.38640625 -8.83984375 54.20640625 -8.83984375 72.56640625 C8.98015625 72.56640625 26.80015625 72.56640625 45.16015625 72.56640625 C45.16015625 54.74640625 45.16015625 36.92640625 45.16015625 18.56640625 C27.34015625 18.56640625 9.52015625 18.56640625 -8.83984375 18.56640625 Z " fill="#89CCD1" transform="translate(179.83984375,152.43359375)"/>
<path d="M0 0 C1.45057065 -0.0052428 2.90113788 -0.01152168 4.35169983 -0.01878357 C7.38363755 -0.02915916 10.41510511 -0.02466825 13.44702148 -0.01000977 C17.31516388 0.00716933 21.18181951 -0.01631886 25.0497961 -0.05149937 C28.0431943 -0.07355646 31.03624131 -0.072012 34.02969551 -0.06373405 C35.4549275 -0.06291896 36.88018643 -0.06969724 38.30534172 -0.08450508 C52.15940283 -0.20640152 52.15940283 -0.20640152 57.64173889 4.0684967 C63.58146744 9.92800301 63.63730913 15.14621387 63.71594238 23.24267578 C63.70878189 24.64225818 63.70057774 26.04183558 63.69140625 27.44140625 C63.69410498 28.89437113 63.69799057 30.34733423 63.70300293 31.80029297 C63.70888018 34.83643899 63.70039317 37.87211233 63.68164062 40.90820312 C63.65885126 44.78524404 63.67198402 48.66117715 63.69593048 52.53817749 C63.71043708 55.53580966 63.70576045 58.53318245 63.69541931 61.53082275 C63.6927654 62.95965712 63.69597446 64.38851562 63.70533752 65.81732178 C63.77876248 80.16889018 63.77876248 80.16889018 59.16015625 85.56640625 C53.20285711 91.43362092 46.32749155 91.29930027 38.33590698 91.24788284 C37.28984787 91.23926287 37.28984787 91.23926287 36.22265625 91.23046875 C34.77351475 91.23384354 33.32437603 91.23870166 31.87524414 91.2449646 C28.84917045 91.25230499 25.82383849 91.2417239 22.79785156 91.21826172 C18.9375351 91.1897738 15.07895705 91.20619333 11.21870422 91.23612404 C8.2295647 91.2542751 5.24083086 91.24840377 2.25167847 91.23548508 C0.829252 91.2321725 -0.59321246 91.2361618 -2.01559448 91.24788284 C-16.97448042 91.34412751 -16.97448042 91.34412751 -22.83984375 85.56640625 C-28.27892369 79.1995308 -27.44156216 71.74650427 -27.40625 63.7265625 C-27.4114928 62.27599185 -27.41777168 60.82542462 -27.42503357 59.37486267 C-27.43540916 56.34292495 -27.43091825 53.31145739 -27.41625977 50.27954102 C-27.39908067 46.41139862 -27.42256886 42.54474299 -27.45774937 38.6767664 C-27.47980646 35.6833682 -27.478262 32.69032119 -27.46998405 29.69686699 C-27.46916896 28.271635 -27.47594724 26.84637607 -27.49075508 25.42122078 C-27.61264593 11.56779601 -27.61264593 11.56779601 -23.33789062 6.08468628 C-16.5743523 -0.7702028 -9.15028534 -0.04028911 0 0 Z M-8.83984375 18.56640625 C-8.83984375 36.38640625 -8.83984375 54.20640625 -8.83984375 72.56640625 C8.98015625 72.56640625 26.80015625 72.56640625 45.16015625 72.56640625 C45.16015625 54.74640625 45.16015625 36.92640625 45.16015625 18.56640625 C27.34015625 18.56640625 9.52015625 18.56640625 -8.83984375 18.56640625 Z " fill="#89CCD1" transform="translate(71.83984375,152.43359375)"/>
<path d="M0 0 C1.45057065 -0.0052428 2.90113788 -0.01152168 4.35169983 -0.01878357 C7.38363755 -0.02915916 10.41510511 -0.02466825 13.44702148 -0.01000977 C17.31516388 0.00716933 21.18181951 -0.01631886 25.0497961 -0.05149937 C28.0431943 -0.07355646 31.03624131 -0.072012 34.02969551 -0.06373405 C35.4549275 -0.06291896 36.88018643 -0.06969724 38.30534172 -0.08450508 C52.15940283 -0.20640152 52.15940283 -0.20640152 57.64173889 4.0684967 C63.58146744 9.92800301 63.63730913 15.14621387 63.71594238 23.24267578 C63.70878189 24.64225818 63.70057774 26.04183558 63.69140625 27.44140625 C63.69410498 28.89437113 63.69799057 30.34733423 63.70300293 31.80029297 C63.70888018 34.83643899 63.70039317 37.87211233 63.68164062 40.90820312 C63.65885126 44.78524404 63.67198402 48.66117715 63.69593048 52.53817749 C63.71043708 55.53580966 63.70576045 58.53318245 63.69541931 61.53082275 C63.6927654 62.95965712 63.69597446 64.38851562 63.70533752 65.81732178 C63.77876248 80.16889018 63.77876248 80.16889018 59.16015625 85.56640625 C53.20285711 91.43362092 46.32749155 91.29930027 38.33590698 91.24788284 C37.28984787 91.23926287 37.28984787 91.23926287 36.22265625 91.23046875 C34.77351475 91.23384354 33.32437603 91.23870166 31.87524414 91.2449646 C28.84917045 91.25230499 25.82383849 91.2417239 22.79785156 91.21826172 C18.9375351 91.1897738 15.07895705 91.20619333 11.21870422 91.23612404 C8.2295647 91.2542751 5.24083086 91.24840377 2.25167847 91.23548508 C0.829252 91.2321725 -0.59321246 91.2361618 -2.01559448 91.24788284 C-16.97448042 91.34412751 -16.97448042 91.34412751 -22.83984375 85.56640625 C-28.27892369 79.1995308 -27.44156216 71.74650427 -27.40625 63.7265625 C-27.4114928 62.27599185 -27.41777168 60.82542462 -27.42503357 59.37486267 C-27.43540916 56.34292495 -27.43091825 53.31145739 -27.41625977 50.27954102 C-27.39908067 46.41139862 -27.42256886 42.54474299 -27.45774937 38.6767664 C-27.47980646 35.6833682 -27.478262 32.69032119 -27.46998405 29.69686699 C-27.46916896 28.271635 -27.47594724 26.84637607 -27.49075508 25.42122078 C-27.61264593 11.56779601 -27.61264593 11.56779601 -23.33789062 6.08468628 C-16.5743523 -0.7702028 -9.15028534 -0.04028911 0 0 Z M-8.83984375 18.56640625 C-8.83984375 36.38640625 -8.83984375 54.20640625 -8.83984375 72.56640625 C8.98015625 72.56640625 26.80015625 72.56640625 45.16015625 72.56640625 C45.16015625 54.74640625 45.16015625 36.92640625 45.16015625 18.56640625 C27.34015625 18.56640625 9.52015625 18.56640625 -8.83984375 18.56640625 Z " fill="#89CCD1" transform="translate(179.83984375,44.43359375)"/>
<path d="M0 0 C1.45057065 -0.0052428 2.90113788 -0.01152168 4.35169983 -0.01878357 C7.38363755 -0.02915916 10.41510511 -0.02466825 13.44702148 -0.01000977 C17.31516388 0.00716933 21.18181951 -0.01631886 25.0497961 -0.05149937 C28.0431943 -0.07355646 31.03624131 -0.072012 34.02969551 -0.06373405 C35.4549275 -0.06291896 36.88018643 -0.06969724 38.30534172 -0.08450508 C52.15940283 -0.20640152 52.15940283 -0.20640152 57.64173889 4.0684967 C63.58146744 9.92800301 63.63730913 15.14621387 63.71594238 23.24267578 C63.70878189 24.64225818 63.70057774 26.04183558 63.69140625 27.44140625 C63.69410498 28.89437113 63.69799057 30.34733423 63.70300293 31.80029297 C63.70888018 34.83643899 63.70039317 37.87211233 63.68164062 40.90820312 C63.65885126 44.78524404 63.67198402 48.66117715 63.69593048 52.53817749 C63.71043708 55.53580966 63.70576045 58.53318245 63.69541931 61.53082275 C63.6927654 62.95965712 63.69597446 64.38851562 63.70533752 65.81732178 C63.77876248 80.16889018 63.77876248 80.16889018 59.16015625 85.56640625 C53.20285711 91.43362092 46.32749155 91.29930027 38.33590698 91.24788284 C37.28984787 91.23926287 37.28984787 91.23926287 36.22265625 91.23046875 C34.77351475 91.23384354 33.32437603 91.23870166 31.87524414 91.2449646 C28.84917045 91.25230499 25.82383849 91.2417239 22.79785156 91.21826172 C18.9375351 91.1897738 15.07895705 91.20619333 11.21870422 91.23612404 C8.2295647 91.2542751 5.24083086 91.24840377 2.25167847 91.23548508 C0.829252 91.2321725 -0.59321246 91.2361618 -2.01559448 91.24788284 C-16.97448042 91.34412751 -16.97448042 91.34412751 -22.83984375 85.56640625 C-28.27892369 79.1995308 -27.44156216 71.74650427 -27.40625 63.7265625 C-27.4114928 62.27599185 -27.41777168 60.82542462 -27.42503357 59.37486267 C-27.43540916 56.34292495 -27.43091825 53.31145739 -27.41625977 50.27954102 C-27.39908067 46.41139862 -27.42256886 42.54474299 -27.45774937 38.6767664 C-27.47980646 35.6833682 -27.478262 32.69032119 -27.46998405 29.69686699 C-27.46916896 28.271635 -27.47594724 26.84637607 -27.49075508 25.42122078 C-27.61264593 11.56779601 -27.61264593 11.56779601 -23.33789062 6.08468628 C-16.5743523 -0.7702028 -9.15028534 -0.04028911 0 0 Z M-8.83984375 18.56640625 C-8.83984375 36.38640625 -8.83984375 54.20640625 -8.83984375 72.56640625 C8.98015625 72.56640625 26.80015625 72.56640625 45.16015625 72.56640625 C45.16015625 54.74640625 45.16015625 36.92640625 45.16015625 18.56640625 C27.34015625 18.56640625 9.52015625 18.56640625 -8.83984375 18.56640625 Z " fill="#89CCD1" transform="translate(71.83984375,44.43359375)"/>
</svg>
