<?xml version="1.0" encoding="UTF-8"?>
<svg version="1.1" xmlns="http://www.w3.org/2000/svg" width="100" height="100">
<path d="M0 0 C8.73885226 6.53626102 14.76302116 15.91130269 16.38671875 26.78515625 C17.2137756 39.81130171 15.29386316 50.21345989 7.38671875 60.78515625 C-0.05486328 69.06808673 -9.63580837 74.27865004 -20.8125 74.98828125 C-33.66294166 75.16096356 -44.08481331 72.54891116 -53.84375 63.78125 C-63.12833937 54.04375383 -65.96127549 43.49530387 -65.82421875 30.3515625 C-65.18172891 19.48872496 -60.2733447 9.95521675 -52.42578125 2.47265625 C-37.18439892 -10.2671794 -16.45359492 -10.51273647 0 0 Z M-51.86328125 13.47265625 C-57.09999951 20.98434228 -60.01753998 29.62938932 -58.61328125 38.78515625 C-56.9265566 45.08455646 -54.54789984 50.58583882 -50.61328125 55.78515625 C-49.95328125 55.06328125 -49.29328125 54.34140625 -48.61328125 53.59765625 C-45.37191592 50.32826759 -41.56953414 48.09215235 -37.61328125 45.78515625 C-37.97421875 45.19089844 -38.33515625 44.59664062 -38.70703125 43.984375 C-42.30920412 37.55049401 -43.96754504 32.15103002 -42.61328125 24.78515625 C-40.71938939 19.8043041 -37.65762631 15.79787775 -32.76171875 13.4140625 C-27.31775273 11.82046517 -21.55230275 11.7086265 -16.203125 13.66796875 C-11.54508071 16.29736945 -8.1700789 19.59907406 -6.61328125 24.78515625 C-5.55769445 32.14127677 -6.71219087 37.53401143 -10.61328125 43.78515625 C-11.10828125 44.77515625 -11.10828125 44.77515625 -11.61328125 45.78515625 C-11.01 46.171875 -10.40671875 46.55859375 -9.78515625 46.95703125 C-8.9859375 47.4778125 -8.18671875 47.99859375 -7.36328125 48.53515625 C-6.574375 49.045625 -5.78546875 49.55609375 -4.97265625 50.08203125 C-2.59412919 51.79898125 -0.62815374 53.65937335 1.38671875 55.78515625 C7.32217701 46.67665427 11.06384949 38.48086774 8.921875 27.375 C6.49822567 18.09629518 1.44681486 10.13679901 -6.61328125 4.78515625 C-22.79256869 -3.77067033 -39.99133176 -1.00460884 -51.86328125 13.47265625 Z M-35.61328125 24.78515625 C-36.73965212 27.88267614 -37.01751691 30.51612004 -36.61328125 33.78515625 C-34.48376018 38.20800771 -32.14279438 40.84393634 -27.61328125 42.78515625 C-23.68567206 43.37011932 -21.95868184 42.96801539 -18.42578125 41.09765625 C-15.48132384 38.67665793 -13.95792788 37.34451497 -12.61328125 33.78515625 C-12.22574479 29.68182899 -12.54805688 26.28936357 -14.96875 22.87109375 C-17.87882681 20.06090516 -20.53882811 18.39256442 -24.61328125 18.03515625 C-29.47345379 18.46148717 -32.81911595 20.85887225 -35.61328125 24.78515625 Z M-43.65234375 59.39453125 C-43.96945313 59.8534375 -44.2865625 60.31234375 -44.61328125 60.78515625 C-36.66092238 66.19689138 -29.34039081 68.94113159 -19.61328125 67.78515625 C-13.5057242 66.21371584 -8.8990189 64.52936815 -4.61328125 59.78515625 C-10.82063856 53.75939716 -15.82144938 50.32616953 -24.48828125 49.34765625 C-32.54911765 49.72848317 -38.81336996 53.03168173 -43.65234375 59.39453125 Z " fill="#89CCD1" transform="translate(74.61328125,16.21484375)"/>
</svg>
