<svg id="SvgjsSvg1001" width="288" height="288" xmlns="http://www.w3.org/2000/svg" version="1.1" xmlns:xlink="http://www.w3.org/1999/xlink" xmlns:svgjs="http://svgjs.com/svgjs"><defs id="SvgjsDefs1002"></defs><g id="SvgjsG1008"><svg xmlns="http://www.w3.org/2000/svg" viewBox="0 0 256 256" width="288" height="288"><rect width="256" height="256" fill="none"></rect><line x1="96" x2="160" y1="128" y2="128" fill="none" stroke="#69edff" stroke-linecap="round" stroke-linejoin="round" stroke-width="16" class="colorStrokecurrentColor svgStroke"></line><line x1="96" x2="160" y1="160" y2="160" fill="none" stroke="#69edff" stroke-linecap="round" stroke-linejoin="round" stroke-width="16" class="colorStrokecurrentColor svgStroke"></line><path fill="none" stroke="#69edff" stroke-linecap="round" stroke-linejoin="round" stroke-width="16" d="M48,40H208a0,0,0,0,1,0,0V200a24,24,0,0,1-24,24H72a24,24,0,0,1-24-24V40A0,0,0,0,1,48,40Z" class="colorStrokecurrentColor svgStroke"></path><line x1="80" x2="80" y1="24" y2="56" fill="none" stroke="#69edff" stroke-linecap="round" stroke-linejoin="round" stroke-width="16" class="colorStrokecurrentColor svgStroke"></line><line x1="128" x2="128" y1="24" y2="56" fill="none" stroke="#69edff" stroke-linecap="round" stroke-linejoin="round" stroke-width="16" class="colorStrokecurrentColor svgStroke"></line><line x1="176" x2="176" y1="24" y2="56" fill="none" stroke="#69edff" stroke-linecap="round" stroke-linejoin="round" stroke-width="16" class="colorStrokecurrentColor svgStroke"></line></svg></g></svg>